<mxfile host="app.diagrams.net" modified="2023-05-17T03:35:45.231Z" agent="Mozilla/5.0 (Windows NT 10.0; Win64; x64) AppleWebKit/537.36 (KHTML, like Gecko) Chrome/113.0.0.0 Safari/537.36" etag="UPiTfknmoiMpACRwOmQX" version="21.3.2" type="github" pages="3">
  <diagram name="Page-1" id="dWDN8wAfHk-EL6apl8tl">
    <mxGraphModel dx="1615" dy="894" grid="1" gridSize="10" guides="1" tooltips="1" connect="1" arrows="1" fold="1" page="1" pageScale="1" pageWidth="850" pageHeight="1100" math="0" shadow="0">
      <root>
        <mxCell id="0" />
        <mxCell id="1" parent="0" />
        <mxCell id="xLeFarRHSY7wkwXqU_Pc-49" style="edgeStyle=orthogonalEdgeStyle;rounded=0;orthogonalLoop=1;jettySize=auto;html=1;verticalAlign=middle;" edge="1" parent="1" source="xLeFarRHSY7wkwXqU_Pc-1" target="xLeFarRHSY7wkwXqU_Pc-2">
          <mxGeometry relative="1" as="geometry" />
        </mxCell>
        <mxCell id="xLeFarRHSY7wkwXqU_Pc-50" style="edgeStyle=orthogonalEdgeStyle;rounded=0;orthogonalLoop=1;jettySize=auto;html=1;entryX=0.5;entryY=0;entryDx=0;entryDy=0;verticalAlign=middle;" edge="1" parent="1" source="xLeFarRHSY7wkwXqU_Pc-1" target="xLeFarRHSY7wkwXqU_Pc-9">
          <mxGeometry relative="1" as="geometry" />
        </mxCell>
        <mxCell id="xLeFarRHSY7wkwXqU_Pc-1" value="FONT-END" style="rounded=0;whiteSpace=wrap;html=1;verticalAlign=middle;" vertex="1" parent="1">
          <mxGeometry x="390" y="70" width="120" height="60" as="geometry" />
        </mxCell>
        <mxCell id="xLeFarRHSY7wkwXqU_Pc-51" style="edgeStyle=orthogonalEdgeStyle;rounded=0;orthogonalLoop=1;jettySize=auto;html=1;verticalAlign=middle;" edge="1" parent="1" source="xLeFarRHSY7wkwXqU_Pc-2" target="xLeFarRHSY7wkwXqU_Pc-3">
          <mxGeometry relative="1" as="geometry" />
        </mxCell>
        <mxCell id="xLeFarRHSY7wkwXqU_Pc-52" style="edgeStyle=orthogonalEdgeStyle;rounded=0;orthogonalLoop=1;jettySize=auto;html=1;verticalAlign=middle;" edge="1" parent="1" source="xLeFarRHSY7wkwXqU_Pc-2" target="xLeFarRHSY7wkwXqU_Pc-4">
          <mxGeometry relative="1" as="geometry" />
        </mxCell>
        <mxCell id="xLeFarRHSY7wkwXqU_Pc-2" value="Người dùng" style="rounded=0;whiteSpace=wrap;html=1;verticalAlign=middle;" vertex="1" parent="1">
          <mxGeometry x="90" y="180" width="120" height="60" as="geometry" />
        </mxCell>
        <mxCell id="xLeFarRHSY7wkwXqU_Pc-53" value="" style="edgeStyle=orthogonalEdgeStyle;rounded=0;orthogonalLoop=1;jettySize=auto;html=1;verticalAlign=middle;endArrow=none;endFill=0;" edge="1" parent="1" source="xLeFarRHSY7wkwXqU_Pc-3" target="xLeFarRHSY7wkwXqU_Pc-7">
          <mxGeometry relative="1" as="geometry" />
        </mxCell>
        <mxCell id="xLeFarRHSY7wkwXqU_Pc-3" value="hồ sơ nhân vật" style="rounded=0;whiteSpace=wrap;html=1;verticalAlign=middle;" vertex="1" parent="1">
          <mxGeometry y="300" width="120" height="60" as="geometry" />
        </mxCell>
        <mxCell id="xLeFarRHSY7wkwXqU_Pc-54" value="" style="edgeStyle=orthogonalEdgeStyle;rounded=0;orthogonalLoop=1;jettySize=auto;html=1;verticalAlign=middle;endArrow=none;endFill=0;" edge="1" parent="1" source="xLeFarRHSY7wkwXqU_Pc-4" target="xLeFarRHSY7wkwXqU_Pc-5">
          <mxGeometry relative="1" as="geometry" />
        </mxCell>
        <mxCell id="xLeFarRHSY7wkwXqU_Pc-4" value="truyện tranh&amp;nbsp;" style="rounded=0;whiteSpace=wrap;html=1;verticalAlign=middle;" vertex="1" parent="1">
          <mxGeometry x="180" y="300" width="120" height="60" as="geometry" />
        </mxCell>
        <mxCell id="xLeFarRHSY7wkwXqU_Pc-5" value="theo thể loại" style="rounded=0;whiteSpace=wrap;html=1;verticalAlign=middle;" vertex="1" parent="1">
          <mxGeometry x="180" y="440" width="120" height="60" as="geometry" />
        </mxCell>
        <mxCell id="xLeFarRHSY7wkwXqU_Pc-7" value="theo hồ sơ" style="whiteSpace=wrap;html=1;rounded=0;verticalAlign=middle;" vertex="1" parent="1">
          <mxGeometry y="440" width="120" height="60" as="geometry" />
        </mxCell>
        <mxCell id="xLeFarRHSY7wkwXqU_Pc-14" value="" style="edgeStyle=orthogonalEdgeStyle;rounded=0;orthogonalLoop=1;jettySize=auto;html=1;verticalAlign=middle;endArrow=classic;endFill=0;" edge="1" parent="1" source="xLeFarRHSY7wkwXqU_Pc-9" target="xLeFarRHSY7wkwXqU_Pc-13">
          <mxGeometry relative="1" as="geometry" />
        </mxCell>
        <mxCell id="xLeFarRHSY7wkwXqU_Pc-33" style="edgeStyle=orthogonalEdgeStyle;rounded=0;orthogonalLoop=1;jettySize=auto;html=1;verticalAlign=middle;" edge="1" parent="1" source="xLeFarRHSY7wkwXqU_Pc-9" target="xLeFarRHSY7wkwXqU_Pc-20">
          <mxGeometry relative="1" as="geometry" />
        </mxCell>
        <mxCell id="xLeFarRHSY7wkwXqU_Pc-36" style="edgeStyle=orthogonalEdgeStyle;rounded=0;orthogonalLoop=1;jettySize=auto;html=1;entryX=0.5;entryY=0;entryDx=0;entryDy=0;verticalAlign=middle;" edge="1" parent="1" source="xLeFarRHSY7wkwXqU_Pc-9" target="xLeFarRHSY7wkwXqU_Pc-22">
          <mxGeometry relative="1" as="geometry" />
        </mxCell>
        <mxCell id="xLeFarRHSY7wkwXqU_Pc-37" style="edgeStyle=orthogonalEdgeStyle;rounded=0;orthogonalLoop=1;jettySize=auto;html=1;verticalAlign=middle;" edge="1" parent="1" source="xLeFarRHSY7wkwXqU_Pc-9" target="xLeFarRHSY7wkwXqU_Pc-21">
          <mxGeometry relative="1" as="geometry" />
        </mxCell>
        <mxCell id="xLeFarRHSY7wkwXqU_Pc-9" value="người quản lý&amp;nbsp;" style="whiteSpace=wrap;html=1;rounded=0;verticalAlign=middle;" vertex="1" parent="1">
          <mxGeometry x="680" y="170" width="120" height="60" as="geometry" />
        </mxCell>
        <mxCell id="xLeFarRHSY7wkwXqU_Pc-38" style="edgeStyle=orthogonalEdgeStyle;rounded=0;orthogonalLoop=1;jettySize=auto;html=1;endArrow=none;endFill=0;verticalAlign=middle;" edge="1" parent="1" source="xLeFarRHSY7wkwXqU_Pc-13" target="xLeFarRHSY7wkwXqU_Pc-15">
          <mxGeometry relative="1" as="geometry" />
        </mxCell>
        <mxCell id="xLeFarRHSY7wkwXqU_Pc-13" value="đăng nhập&amp;nbsp;" style="whiteSpace=wrap;html=1;rounded=0;verticalAlign=middle;" vertex="1" parent="1">
          <mxGeometry x="390" y="300" width="120" height="60" as="geometry" />
        </mxCell>
        <mxCell id="xLeFarRHSY7wkwXqU_Pc-39" style="edgeStyle=orthogonalEdgeStyle;rounded=0;orthogonalLoop=1;jettySize=auto;html=1;verticalAlign=middle;endArrow=none;endFill=0;" edge="1" parent="1" source="xLeFarRHSY7wkwXqU_Pc-15" target="xLeFarRHSY7wkwXqU_Pc-16">
          <mxGeometry relative="1" as="geometry" />
        </mxCell>
        <mxCell id="xLeFarRHSY7wkwXqU_Pc-15" value="đăng ký" style="whiteSpace=wrap;html=1;rounded=0;verticalAlign=middle;" vertex="1" parent="1">
          <mxGeometry x="390" y="440" width="120" height="60" as="geometry" />
        </mxCell>
        <mxCell id="xLeFarRHSY7wkwXqU_Pc-19" value="" style="edgeStyle=orthogonalEdgeStyle;rounded=0;orthogonalLoop=1;jettySize=auto;html=1;verticalAlign=middle;endArrow=none;endFill=0;" edge="1" parent="1" source="xLeFarRHSY7wkwXqU_Pc-16" target="xLeFarRHSY7wkwXqU_Pc-18">
          <mxGeometry relative="1" as="geometry" />
        </mxCell>
        <mxCell id="xLeFarRHSY7wkwXqU_Pc-16" value="quên mật khẩu" style="whiteSpace=wrap;html=1;rounded=0;verticalAlign=middle;" vertex="1" parent="1">
          <mxGeometry x="390" y="580" width="120" height="60" as="geometry" />
        </mxCell>
        <mxCell id="xLeFarRHSY7wkwXqU_Pc-18" value="đăng xuất" style="whiteSpace=wrap;html=1;rounded=0;verticalAlign=middle;" vertex="1" parent="1">
          <mxGeometry x="390" y="720" width="120" height="60" as="geometry" />
        </mxCell>
        <mxCell id="xLeFarRHSY7wkwXqU_Pc-40" style="edgeStyle=orthogonalEdgeStyle;rounded=0;orthogonalLoop=1;jettySize=auto;html=1;entryX=0.5;entryY=0;entryDx=0;entryDy=0;verticalAlign=middle;endArrow=none;endFill=0;" edge="1" parent="1" source="xLeFarRHSY7wkwXqU_Pc-20" target="xLeFarRHSY7wkwXqU_Pc-23">
          <mxGeometry relative="1" as="geometry" />
        </mxCell>
        <mxCell id="xLeFarRHSY7wkwXqU_Pc-20" value="quản lý hồ sờ nhân vật" style="whiteSpace=wrap;html=1;rounded=0;verticalAlign=middle;" vertex="1" parent="1">
          <mxGeometry x="590" y="300" width="120" height="60" as="geometry" />
        </mxCell>
        <mxCell id="xLeFarRHSY7wkwXqU_Pc-46" style="edgeStyle=orthogonalEdgeStyle;rounded=0;orthogonalLoop=1;jettySize=auto;html=1;verticalAlign=middle;endArrow=none;endFill=0;" edge="1" parent="1" source="xLeFarRHSY7wkwXqU_Pc-21" target="xLeFarRHSY7wkwXqU_Pc-30">
          <mxGeometry relative="1" as="geometry" />
        </mxCell>
        <mxCell id="xLeFarRHSY7wkwXqU_Pc-21" value="quản lý thể loại" style="whiteSpace=wrap;html=1;rounded=0;verticalAlign=middle;" vertex="1" parent="1">
          <mxGeometry x="930" y="300" width="120" height="60" as="geometry" />
        </mxCell>
        <mxCell id="xLeFarRHSY7wkwXqU_Pc-43" style="edgeStyle=orthogonalEdgeStyle;rounded=0;orthogonalLoop=1;jettySize=auto;html=1;verticalAlign=middle;endArrow=none;endFill=0;" edge="1" parent="1" source="xLeFarRHSY7wkwXqU_Pc-22" target="xLeFarRHSY7wkwXqU_Pc-27">
          <mxGeometry relative="1" as="geometry" />
        </mxCell>
        <mxCell id="xLeFarRHSY7wkwXqU_Pc-22" value="quản lý truyện tranh" style="whiteSpace=wrap;html=1;rounded=0;verticalAlign=middle;" vertex="1" parent="1">
          <mxGeometry x="760" y="300" width="120" height="60" as="geometry" />
        </mxCell>
        <mxCell id="xLeFarRHSY7wkwXqU_Pc-41" style="edgeStyle=orthogonalEdgeStyle;rounded=0;orthogonalLoop=1;jettySize=auto;html=1;entryX=0.5;entryY=0;entryDx=0;entryDy=0;verticalAlign=middle;endArrow=none;endFill=0;" edge="1" parent="1" source="xLeFarRHSY7wkwXqU_Pc-23" target="xLeFarRHSY7wkwXqU_Pc-25">
          <mxGeometry relative="1" as="geometry" />
        </mxCell>
        <mxCell id="xLeFarRHSY7wkwXqU_Pc-23" value="thêm nhân vật" style="whiteSpace=wrap;html=1;rounded=0;verticalAlign=middle;" vertex="1" parent="1">
          <mxGeometry x="590" y="440" width="120" height="60" as="geometry" />
        </mxCell>
        <mxCell id="xLeFarRHSY7wkwXqU_Pc-42" style="edgeStyle=orthogonalEdgeStyle;rounded=0;orthogonalLoop=1;jettySize=auto;html=1;verticalAlign=middle;endArrow=none;endFill=0;" edge="1" parent="1" source="xLeFarRHSY7wkwXqU_Pc-25" target="xLeFarRHSY7wkwXqU_Pc-26">
          <mxGeometry relative="1" as="geometry" />
        </mxCell>
        <mxCell id="xLeFarRHSY7wkwXqU_Pc-25" value="xóa nhân vật" style="whiteSpace=wrap;html=1;rounded=0;verticalAlign=middle;" vertex="1" parent="1">
          <mxGeometry x="590" y="580" width="120" height="60" as="geometry" />
        </mxCell>
        <mxCell id="xLeFarRHSY7wkwXqU_Pc-26" value="sửa nhân vật" style="whiteSpace=wrap;html=1;rounded=0;verticalAlign=middle;" vertex="1" parent="1">
          <mxGeometry x="590" y="720" width="120" height="60" as="geometry" />
        </mxCell>
        <mxCell id="xLeFarRHSY7wkwXqU_Pc-44" style="edgeStyle=orthogonalEdgeStyle;rounded=0;orthogonalLoop=1;jettySize=auto;html=1;verticalAlign=middle;endArrow=none;endFill=0;" edge="1" parent="1" source="xLeFarRHSY7wkwXqU_Pc-27" target="xLeFarRHSY7wkwXqU_Pc-28">
          <mxGeometry relative="1" as="geometry" />
        </mxCell>
        <mxCell id="xLeFarRHSY7wkwXqU_Pc-27" value="thêm truyện tranh" style="whiteSpace=wrap;html=1;rounded=0;verticalAlign=middle;" vertex="1" parent="1">
          <mxGeometry x="760" y="440" width="120" height="60" as="geometry" />
        </mxCell>
        <mxCell id="xLeFarRHSY7wkwXqU_Pc-45" style="edgeStyle=orthogonalEdgeStyle;rounded=0;orthogonalLoop=1;jettySize=auto;html=1;entryX=0.412;entryY=0.023;entryDx=0;entryDy=0;entryPerimeter=0;verticalAlign=middle;endArrow=none;endFill=0;" edge="1" parent="1" source="xLeFarRHSY7wkwXqU_Pc-28" target="xLeFarRHSY7wkwXqU_Pc-29">
          <mxGeometry relative="1" as="geometry" />
        </mxCell>
        <mxCell id="xLeFarRHSY7wkwXqU_Pc-28" value="xóa truyện tranh" style="whiteSpace=wrap;html=1;rounded=0;verticalAlign=middle;" vertex="1" parent="1">
          <mxGeometry x="760" y="580" width="120" height="60" as="geometry" />
        </mxCell>
        <mxCell id="xLeFarRHSY7wkwXqU_Pc-29" value="sửa truyện tranh" style="whiteSpace=wrap;html=1;rounded=0;verticalAlign=middle;" vertex="1" parent="1">
          <mxGeometry x="770" y="720" width="120" height="60" as="geometry" />
        </mxCell>
        <mxCell id="xLeFarRHSY7wkwXqU_Pc-47" style="edgeStyle=orthogonalEdgeStyle;rounded=0;orthogonalLoop=1;jettySize=auto;html=1;entryX=0.5;entryY=0;entryDx=0;entryDy=0;verticalAlign=middle;endArrow=none;endFill=0;" edge="1" parent="1" source="xLeFarRHSY7wkwXqU_Pc-30" target="xLeFarRHSY7wkwXqU_Pc-31">
          <mxGeometry relative="1" as="geometry" />
        </mxCell>
        <mxCell id="xLeFarRHSY7wkwXqU_Pc-30" value="thêm thể loại" style="whiteSpace=wrap;html=1;rounded=0;verticalAlign=middle;" vertex="1" parent="1">
          <mxGeometry x="930" y="440" width="120" height="60" as="geometry" />
        </mxCell>
        <mxCell id="xLeFarRHSY7wkwXqU_Pc-48" style="edgeStyle=orthogonalEdgeStyle;rounded=0;orthogonalLoop=1;jettySize=auto;html=1;entryX=0.401;entryY=-0.079;entryDx=0;entryDy=0;entryPerimeter=0;verticalAlign=middle;endArrow=none;endFill=0;" edge="1" parent="1" source="xLeFarRHSY7wkwXqU_Pc-31" target="xLeFarRHSY7wkwXqU_Pc-32">
          <mxGeometry relative="1" as="geometry" />
        </mxCell>
        <mxCell id="xLeFarRHSY7wkwXqU_Pc-31" value="xóa thể loại" style="whiteSpace=wrap;html=1;rounded=0;verticalAlign=middle;" vertex="1" parent="1">
          <mxGeometry x="930" y="580" width="120" height="60" as="geometry" />
        </mxCell>
        <mxCell id="xLeFarRHSY7wkwXqU_Pc-32" value="sửa thể loại" style="whiteSpace=wrap;html=1;rounded=0;verticalAlign=middle;" vertex="1" parent="1">
          <mxGeometry x="950" y="730" width="120" height="60" as="geometry" />
        </mxCell>
      </root>
    </mxGraphModel>
  </diagram>
  <diagram id="1h0y56Cnp2X3JI8QlRuz" name="Page-2">
    <mxGraphModel dx="1909" dy="2156" grid="1" gridSize="10" guides="1" tooltips="1" connect="1" arrows="1" fold="1" page="1" pageScale="1" pageWidth="850" pageHeight="1100" math="0" shadow="0">
      <root>
        <mxCell id="0" />
        <mxCell id="1" parent="0" />
        <mxCell id="2LwCTtHFySd1Ns8z6Pwt-7" value="include" style="edgeStyle=orthogonalEdgeStyle;rounded=0;orthogonalLoop=1;jettySize=auto;html=1;entryX=0;entryY=0.5;entryDx=0;entryDy=0;" edge="1" parent="1" source="2LwCTtHFySd1Ns8z6Pwt-1" target="2LwCTtHFySd1Ns8z6Pwt-5">
          <mxGeometry relative="1" as="geometry" />
        </mxCell>
        <mxCell id="2LwCTtHFySd1Ns8z6Pwt-8" value="include" style="edgeStyle=orthogonalEdgeStyle;rounded=0;orthogonalLoop=1;jettySize=auto;html=1;" edge="1" parent="1" source="2LwCTtHFySd1Ns8z6Pwt-1" target="2LwCTtHFySd1Ns8z6Pwt-6">
          <mxGeometry relative="1" as="geometry">
            <mxPoint x="630" y="140" as="targetPoint" />
          </mxGeometry>
        </mxCell>
        <mxCell id="2LwCTtHFySd1Ns8z6Pwt-1" value="người dùng" style="shape=umlActor;verticalLabelPosition=bottom;verticalAlign=top;html=1;outlineConnect=0;" vertex="1" parent="1">
          <mxGeometry x="340" y="60" width="30" height="60" as="geometry" />
        </mxCell>
        <mxCell id="I-yixuKeWzqxGufxoXzU-2" value="" style="edgeStyle=orthogonalEdgeStyle;rounded=0;orthogonalLoop=1;jettySize=auto;html=1;" edge="1" parent="1" source="2LwCTtHFySd1Ns8z6Pwt-2" target="I-yixuKeWzqxGufxoXzU-1">
          <mxGeometry relative="1" as="geometry" />
        </mxCell>
        <mxCell id="2LwCTtHFySd1Ns8z6Pwt-2" value="người quản lý" style="shape=umlActor;verticalLabelPosition=bottom;verticalAlign=top;html=1;outlineConnect=0;" vertex="1" parent="1">
          <mxGeometry x="340" y="400" width="30" height="60" as="geometry" />
        </mxCell>
        <mxCell id="2LwCTtHFySd1Ns8z6Pwt-5" value="hồ sơ nhân vật" style="ellipse;whiteSpace=wrap;html=1;" vertex="1" parent="1">
          <mxGeometry x="630" y="-20" width="120" height="80" as="geometry" />
        </mxCell>
        <mxCell id="2LwCTtHFySd1Ns8z6Pwt-6" value="truyên tranh&amp;nbsp;" style="ellipse;whiteSpace=wrap;html=1;" vertex="1" parent="1">
          <mxGeometry x="630" y="90" width="120" height="80" as="geometry" />
        </mxCell>
        <mxCell id="I-yixuKeWzqxGufxoXzU-6" value="include" style="edgeStyle=orthogonalEdgeStyle;rounded=0;orthogonalLoop=1;jettySize=auto;html=1;" edge="1" parent="1" source="I-yixuKeWzqxGufxoXzU-1" target="I-yixuKeWzqxGufxoXzU-3">
          <mxGeometry relative="1" as="geometry" />
        </mxCell>
        <mxCell id="I-yixuKeWzqxGufxoXzU-7" value="include" style="edgeStyle=orthogonalEdgeStyle;rounded=0;orthogonalLoop=1;jettySize=auto;html=1;entryX=0;entryY=0.5;entryDx=0;entryDy=0;" edge="1" parent="1" source="I-yixuKeWzqxGufxoXzU-1" target="I-yixuKeWzqxGufxoXzU-4">
          <mxGeometry relative="1" as="geometry" />
        </mxCell>
        <mxCell id="I-yixuKeWzqxGufxoXzU-8" value="include" style="edgeStyle=orthogonalEdgeStyle;rounded=0;orthogonalLoop=1;jettySize=auto;html=1;entryX=0;entryY=0.5;entryDx=0;entryDy=0;" edge="1" parent="1" source="I-yixuKeWzqxGufxoXzU-1" target="I-yixuKeWzqxGufxoXzU-5">
          <mxGeometry relative="1" as="geometry" />
        </mxCell>
        <mxCell id="I-yixuKeWzqxGufxoXzU-1" value="đăng nhập&amp;nbsp;" style="ellipse;whiteSpace=wrap;html=1;verticalAlign=top;" vertex="1" parent="1">
          <mxGeometry x="450" y="405" width="80" height="50" as="geometry" />
        </mxCell>
        <mxCell id="eKM8laYPUM3Z34iXVhWU-25" style="edgeStyle=orthogonalEdgeStyle;rounded=0;orthogonalLoop=1;jettySize=auto;html=1;entryX=0.614;entryY=1.013;entryDx=0;entryDy=0;entryPerimeter=0;" edge="1" parent="1" source="I-yixuKeWzqxGufxoXzU-3" target="eKM8laYPUM3Z34iXVhWU-1">
          <mxGeometry relative="1" as="geometry" />
        </mxCell>
        <mxCell id="eKM8laYPUM3Z34iXVhWU-26" style="edgeStyle=orthogonalEdgeStyle;rounded=0;orthogonalLoop=1;jettySize=auto;html=1;" edge="1" parent="1" source="I-yixuKeWzqxGufxoXzU-3" target="eKM8laYPUM3Z34iXVhWU-3">
          <mxGeometry relative="1" as="geometry" />
        </mxCell>
        <mxCell id="eKM8laYPUM3Z34iXVhWU-27" style="edgeStyle=orthogonalEdgeStyle;rounded=0;orthogonalLoop=1;jettySize=auto;html=1;" edge="1" parent="1" source="I-yixuKeWzqxGufxoXzU-3" target="eKM8laYPUM3Z34iXVhWU-5">
          <mxGeometry relative="1" as="geometry" />
        </mxCell>
        <mxCell id="I-yixuKeWzqxGufxoXzU-3" value="quản lý hồ sờ nhân vật" style="ellipse;whiteSpace=wrap;html=1;" vertex="1" parent="1">
          <mxGeometry x="620" y="300" width="120" height="80" as="geometry" />
        </mxCell>
        <mxCell id="eKM8laYPUM3Z34iXVhWU-8" value="" style="edgeStyle=orthogonalEdgeStyle;rounded=0;orthogonalLoop=1;jettySize=auto;html=1;entryX=0;entryY=0.5;entryDx=0;entryDy=0;" edge="1" parent="1" source="I-yixuKeWzqxGufxoXzU-4" target="eKM8laYPUM3Z34iXVhWU-7">
          <mxGeometry relative="1" as="geometry" />
        </mxCell>
        <mxCell id="eKM8laYPUM3Z34iXVhWU-20" style="edgeStyle=orthogonalEdgeStyle;rounded=0;orthogonalLoop=1;jettySize=auto;html=1;" edge="1" parent="1" source="I-yixuKeWzqxGufxoXzU-4" target="eKM8laYPUM3Z34iXVhWU-9">
          <mxGeometry relative="1" as="geometry" />
        </mxCell>
        <mxCell id="eKM8laYPUM3Z34iXVhWU-28" style="edgeStyle=orthogonalEdgeStyle;rounded=0;orthogonalLoop=1;jettySize=auto;html=1;entryX=0;entryY=0.5;entryDx=0;entryDy=0;" edge="1" parent="1" source="I-yixuKeWzqxGufxoXzU-4" target="eKM8laYPUM3Z34iXVhWU-11">
          <mxGeometry relative="1" as="geometry" />
        </mxCell>
        <mxCell id="I-yixuKeWzqxGufxoXzU-4" value="quản lý truyện tranh" style="ellipse;whiteSpace=wrap;html=1;" vertex="1" parent="1">
          <mxGeometry x="640" y="470" width="120" height="80" as="geometry" />
        </mxCell>
        <mxCell id="eKM8laYPUM3Z34iXVhWU-22" style="edgeStyle=orthogonalEdgeStyle;rounded=0;orthogonalLoop=1;jettySize=auto;html=1;" edge="1" parent="1" source="I-yixuKeWzqxGufxoXzU-5" target="eKM8laYPUM3Z34iXVhWU-13">
          <mxGeometry relative="1" as="geometry" />
        </mxCell>
        <mxCell id="eKM8laYPUM3Z34iXVhWU-23" style="edgeStyle=orthogonalEdgeStyle;rounded=0;orthogonalLoop=1;jettySize=auto;html=1;" edge="1" parent="1" source="I-yixuKeWzqxGufxoXzU-5" target="eKM8laYPUM3Z34iXVhWU-15">
          <mxGeometry relative="1" as="geometry" />
        </mxCell>
        <mxCell id="eKM8laYPUM3Z34iXVhWU-24" style="edgeStyle=orthogonalEdgeStyle;rounded=0;orthogonalLoop=1;jettySize=auto;html=1;entryX=0.394;entryY=0.049;entryDx=0;entryDy=0;entryPerimeter=0;" edge="1" parent="1" source="I-yixuKeWzqxGufxoXzU-5" target="eKM8laYPUM3Z34iXVhWU-16">
          <mxGeometry relative="1" as="geometry" />
        </mxCell>
        <mxCell id="I-yixuKeWzqxGufxoXzU-5" value="quản lý thể loại" style="ellipse;whiteSpace=wrap;html=1;" vertex="1" parent="1">
          <mxGeometry x="540" y="610" width="120" height="80" as="geometry" />
        </mxCell>
        <mxCell id="eKM8laYPUM3Z34iXVhWU-1" value="thêm hồ sờ nhân vật" style="ellipse;whiteSpace=wrap;html=1;" vertex="1" parent="1">
          <mxGeometry x="360" y="190" width="120" height="80" as="geometry" />
        </mxCell>
        <mxCell id="eKM8laYPUM3Z34iXVhWU-3" value="Xóa hồ sờ nhân vật" style="ellipse;whiteSpace=wrap;html=1;" vertex="1" parent="1">
          <mxGeometry x="620" y="180" width="120" height="80" as="geometry" />
        </mxCell>
        <mxCell id="eKM8laYPUM3Z34iXVhWU-5" value="sửa hồ sờ nhân vật" style="ellipse;whiteSpace=wrap;html=1;" vertex="1" parent="1">
          <mxGeometry x="870" y="190" width="120" height="80" as="geometry" />
        </mxCell>
        <mxCell id="eKM8laYPUM3Z34iXVhWU-7" value="thêm truyện tranh" style="ellipse;whiteSpace=wrap;html=1;" vertex="1" parent="1">
          <mxGeometry x="820" y="410" width="120" height="80" as="geometry" />
        </mxCell>
        <mxCell id="eKM8laYPUM3Z34iXVhWU-9" value="xóa truyện tranh" style="ellipse;whiteSpace=wrap;html=1;" vertex="1" parent="1">
          <mxGeometry x="820" y="500" width="120" height="80" as="geometry" />
        </mxCell>
        <mxCell id="eKM8laYPUM3Z34iXVhWU-11" value="sửa truyện tranh" style="ellipse;whiteSpace=wrap;html=1;" vertex="1" parent="1">
          <mxGeometry x="820" y="600" width="120" height="80" as="geometry" />
        </mxCell>
        <mxCell id="eKM8laYPUM3Z34iXVhWU-13" value="thêm thể loại" style="ellipse;whiteSpace=wrap;html=1;" vertex="1" parent="1">
          <mxGeometry x="390" y="730" width="120" height="80" as="geometry" />
        </mxCell>
        <mxCell id="eKM8laYPUM3Z34iXVhWU-15" value="xóa thể loại" style="ellipse;whiteSpace=wrap;html=1;" vertex="1" parent="1">
          <mxGeometry x="540" y="740" width="120" height="80" as="geometry" />
        </mxCell>
        <mxCell id="eKM8laYPUM3Z34iXVhWU-16" value="sửa thể loại" style="ellipse;whiteSpace=wrap;html=1;" vertex="1" parent="1">
          <mxGeometry x="730" y="730" width="120" height="80" as="geometry" />
        </mxCell>
      </root>
    </mxGraphModel>
  </diagram>
  <diagram id="77u-7hKVF9Shu8dGEBlR" name="Page-3">
    <mxGraphModel dx="1050" dy="581" grid="1" gridSize="10" guides="1" tooltips="1" connect="1" arrows="1" fold="1" page="1" pageScale="1" pageWidth="850" pageHeight="1100" math="0" shadow="0">
      <root>
        <mxCell id="0" />
        <mxCell id="1" parent="0" />
        <mxCell id="ro0FKpbPKF4Ar4xm-_S5-1" value="người quản lý" style="rounded=0;whiteSpace=wrap;html=1;" vertex="1" parent="1">
          <mxGeometry x="50" y="90" width="120" height="60" as="geometry" />
        </mxCell>
        <mxCell id="ro0FKpbPKF4Ar4xm-_S5-3" value="" style="endArrow=none;dashed=1;html=1;dashPattern=1 3;strokeWidth=2;rounded=0;entryX=0.5;entryY=1;entryDx=0;entryDy=0;" edge="1" parent="1" target="ro0FKpbPKF4Ar4xm-_S5-1">
          <mxGeometry width="50" height="50" relative="1" as="geometry">
            <mxPoint x="110" y="571.5999755859375" as="sourcePoint" />
            <mxPoint x="120" y="200" as="targetPoint" />
          </mxGeometry>
        </mxCell>
        <mxCell id="ro0FKpbPKF4Ar4xm-_S5-4" value="hệ thông" style="rounded=0;whiteSpace=wrap;html=1;" vertex="1" parent="1">
          <mxGeometry x="320" y="90" width="120" height="60" as="geometry" />
        </mxCell>
        <mxCell id="ro0FKpbPKF4Ar4xm-_S5-5" value="" style="endArrow=none;dashed=1;html=1;dashPattern=1 3;strokeWidth=2;rounded=0;entryX=0.5;entryY=1;entryDx=0;entryDy=0;" edge="1" parent="1" target="ro0FKpbPKF4Ar4xm-_S5-4" source="ro0FKpbPKF4Ar4xm-_S5-9">
          <mxGeometry width="50" height="50" relative="1" as="geometry">
            <mxPoint x="380" y="230" as="sourcePoint" />
            <mxPoint x="390" y="200" as="targetPoint" />
          </mxGeometry>
        </mxCell>
        <mxCell id="ro0FKpbPKF4Ar4xm-_S5-6" value="CSDL" style="rounded=0;whiteSpace=wrap;html=1;" vertex="1" parent="1">
          <mxGeometry x="560" y="90" width="120" height="60" as="geometry" />
        </mxCell>
        <mxCell id="ro0FKpbPKF4Ar4xm-_S5-7" value="" style="endArrow=none;dashed=1;html=1;dashPattern=1 3;strokeWidth=2;rounded=0;entryX=0.5;entryY=1;entryDx=0;entryDy=0;exitX=0;exitY=0.5;exitDx=0;exitDy=0;" edge="1" parent="1" target="ro0FKpbPKF4Ar4xm-_S5-6" source="ro0FKpbPKF4Ar4xm-_S5-25">
          <mxGeometry width="50" height="50" relative="1" as="geometry">
            <mxPoint x="620" y="290" as="sourcePoint" />
            <mxPoint x="630" y="200" as="targetPoint" />
          </mxGeometry>
        </mxCell>
        <mxCell id="ro0FKpbPKF4Ar4xm-_S5-10" value="" style="endArrow=none;dashed=1;html=1;dashPattern=1 3;strokeWidth=2;rounded=0;entryX=0.5;entryY=1;entryDx=0;entryDy=0;" edge="1" parent="1" target="ro0FKpbPKF4Ar4xm-_S5-9">
          <mxGeometry width="50" height="50" relative="1" as="geometry">
            <mxPoint x="380" y="230" as="sourcePoint" />
            <mxPoint x="380" y="150" as="targetPoint" />
          </mxGeometry>
        </mxCell>
        <mxCell id="ro0FKpbPKF4Ar4xm-_S5-9" value="" style="rounded=0;whiteSpace=wrap;html=1;rotation=90;" vertex="1" parent="1">
          <mxGeometry x="360" y="220" width="40" height="20" as="geometry" />
        </mxCell>
        <mxCell id="ro0FKpbPKF4Ar4xm-_S5-11" value="" style="endArrow=none;dashed=1;html=1;dashPattern=1 3;strokeWidth=2;rounded=0;entryX=1;entryY=0.5;entryDx=0;entryDy=0;" edge="1" parent="1" target="ro0FKpbPKF4Ar4xm-_S5-9">
          <mxGeometry width="50" height="50" relative="1" as="geometry">
            <mxPoint x="380" y="360" as="sourcePoint" />
            <mxPoint x="400" y="280" as="targetPoint" />
          </mxGeometry>
        </mxCell>
        <mxCell id="ro0FKpbPKF4Ar4xm-_S5-12" value="" style="rounded=0;whiteSpace=wrap;html=1;rotation=90;" vertex="1" parent="1">
          <mxGeometry x="360" y="370" width="40" height="20" as="geometry" />
        </mxCell>
        <mxCell id="ro0FKpbPKF4Ar4xm-_S5-13" value="" style="endArrow=none;dashed=1;html=1;rounded=0;entryX=1;entryY=0.5;entryDx=0;entryDy=0;" edge="1" parent="1" target="ro0FKpbPKF4Ar4xm-_S5-12">
          <mxGeometry width="50" height="50" relative="1" as="geometry">
            <mxPoint x="380" y="560" as="sourcePoint" />
            <mxPoint x="380" y="410" as="targetPoint" />
          </mxGeometry>
        </mxCell>
        <mxCell id="ro0FKpbPKF4Ar4xm-_S5-14" value="" style="endArrow=block;html=1;rounded=0;entryX=0.25;entryY=1;entryDx=0;entryDy=0;endFill=1;" edge="1" parent="1" target="ro0FKpbPKF4Ar4xm-_S5-9">
          <mxGeometry width="50" height="50" relative="1" as="geometry">
            <mxPoint x="110" y="220" as="sourcePoint" />
            <mxPoint x="160" y="200" as="targetPoint" />
          </mxGeometry>
        </mxCell>
        <mxCell id="ro0FKpbPKF4Ar4xm-_S5-15" value="1:gừi yêu cầu&amp;nbsp; thêm sửa xóa" style="text;html=1;strokeColor=none;fillColor=none;align=center;verticalAlign=middle;whiteSpace=wrap;rounded=0;" vertex="1" parent="1">
          <mxGeometry x="150" y="190" width="160" height="30" as="geometry" />
        </mxCell>
        <mxCell id="ro0FKpbPKF4Ar4xm-_S5-19" value="" style="endArrow=classic;html=1;rounded=0;exitX=1;exitY=1;exitDx=0;exitDy=0;dashed=1;" edge="1" parent="1" source="ro0FKpbPKF4Ar4xm-_S5-9">
          <mxGeometry width="50" height="50" relative="1" as="geometry">
            <mxPoint x="180" y="350" as="sourcePoint" />
            <mxPoint x="110" y="250" as="targetPoint" />
          </mxGeometry>
        </mxCell>
        <mxCell id="ro0FKpbPKF4Ar4xm-_S5-20" value="2:yêu cầu&amp;nbsp; thêm sửa xóa thông tin" style="text;html=1;strokeColor=none;fillColor=none;align=center;verticalAlign=middle;whiteSpace=wrap;rounded=0;" vertex="1" parent="1">
          <mxGeometry x="150" y="220" width="200" height="30" as="geometry" />
        </mxCell>
        <mxCell id="ro0FKpbPKF4Ar4xm-_S5-21" value="" style="endArrow=block;html=1;rounded=0;entryX=0.25;entryY=1;entryDx=0;entryDy=0;endFill=1;" edge="1" parent="1">
          <mxGeometry width="50" height="50" relative="1" as="geometry">
            <mxPoint x="110" y="360" as="sourcePoint" />
            <mxPoint x="370" y="360" as="targetPoint" />
          </mxGeometry>
        </mxCell>
        <mxCell id="ro0FKpbPKF4Ar4xm-_S5-22" value="3: nhập thông tin thêm xóa sửa" style="text;html=1;strokeColor=none;fillColor=none;align=center;verticalAlign=middle;whiteSpace=wrap;rounded=0;" vertex="1" parent="1">
          <mxGeometry x="140" y="330" width="200" height="30" as="geometry" />
        </mxCell>
        <mxCell id="ro0FKpbPKF4Ar4xm-_S5-23" value="" style="endArrow=classic;html=1;rounded=0;exitX=1;exitY=1;exitDx=0;exitDy=0;dashed=1;" edge="1" parent="1">
          <mxGeometry width="50" height="50" relative="1" as="geometry">
            <mxPoint x="380" y="490" as="sourcePoint" />
            <mxPoint x="120" y="490" as="targetPoint" />
          </mxGeometry>
        </mxCell>
        <mxCell id="ro0FKpbPKF4Ar4xm-_S5-24" value="7:hiện thông tin" style="text;html=1;strokeColor=none;fillColor=none;align=center;verticalAlign=middle;whiteSpace=wrap;rounded=0;" vertex="1" parent="1">
          <mxGeometry x="140" y="460" width="200" height="30" as="geometry" />
        </mxCell>
        <mxCell id="ro0FKpbPKF4Ar4xm-_S5-25" value="" style="rounded=0;whiteSpace=wrap;html=1;rotation=90;" vertex="1" parent="1">
          <mxGeometry x="600" y="390" width="40" height="20" as="geometry" />
        </mxCell>
        <mxCell id="ro0FKpbPKF4Ar4xm-_S5-29" value="" style="endArrow=none;dashed=1;html=1;dashPattern=1 3;strokeWidth=2;rounded=0;" edge="1" parent="1">
          <mxGeometry width="50" height="50" relative="1" as="geometry">
            <mxPoint x="620" y="450" as="sourcePoint" />
            <mxPoint x="620" y="420" as="targetPoint" />
          </mxGeometry>
        </mxCell>
        <mxCell id="ro0FKpbPKF4Ar4xm-_S5-30" value="" style="rounded=0;whiteSpace=wrap;html=1;rotation=90;" vertex="1" parent="1">
          <mxGeometry x="600" y="460" width="40" height="20" as="geometry" />
        </mxCell>
        <mxCell id="ro0FKpbPKF4Ar4xm-_S5-32" value="" style="endArrow=classic;html=1;rounded=0;" edge="1" parent="1">
          <mxGeometry width="50" height="50" relative="1" as="geometry">
            <mxPoint x="620" y="420" as="sourcePoint" />
            <mxPoint x="620" y="440" as="targetPoint" />
            <Array as="points">
              <mxPoint x="650" y="420" />
              <mxPoint x="650" y="440" />
            </Array>
          </mxGeometry>
        </mxCell>
        <mxCell id="ro0FKpbPKF4Ar4xm-_S5-33" value="" style="endArrow=classic;html=1;rounded=0;exitX=0.75;exitY=0;exitDx=0;exitDy=0;entryX=0.25;entryY=1;entryDx=0;entryDy=0;" edge="1" parent="1" source="ro0FKpbPKF4Ar4xm-_S5-12" target="ro0FKpbPKF4Ar4xm-_S5-25">
          <mxGeometry width="50" height="50" relative="1" as="geometry">
            <mxPoint x="420" y="410" as="sourcePoint" />
            <mxPoint x="470" y="360" as="targetPoint" />
          </mxGeometry>
        </mxCell>
        <mxCell id="ro0FKpbPKF4Ar4xm-_S5-34" value="4:gửi yêu câu" style="text;html=1;strokeColor=none;fillColor=none;align=center;verticalAlign=middle;whiteSpace=wrap;rounded=0;" vertex="1" parent="1">
          <mxGeometry x="400" y="360" width="200" height="30" as="geometry" />
        </mxCell>
        <mxCell id="ro0FKpbPKF4Ar4xm-_S5-35" value="5: thực hiện" style="text;html=1;strokeColor=none;fillColor=none;align=center;verticalAlign=middle;whiteSpace=wrap;rounded=0;" vertex="1" parent="1">
          <mxGeometry x="600" y="410" width="200" height="30" as="geometry" />
        </mxCell>
        <mxCell id="ro0FKpbPKF4Ar4xm-_S5-36" value="" style="endArrow=none;dashed=1;html=1;dashPattern=1 3;strokeWidth=2;rounded=0;entryX=1;entryY=0.5;entryDx=0;entryDy=0;" edge="1" parent="1" target="ro0FKpbPKF4Ar4xm-_S5-30">
          <mxGeometry width="50" height="50" relative="1" as="geometry">
            <mxPoint x="620" y="570" as="sourcePoint" />
            <mxPoint x="630" y="490" as="targetPoint" />
          </mxGeometry>
        </mxCell>
        <mxCell id="ro0FKpbPKF4Ar4xm-_S5-37" value="6:thông tin kết quả" style="text;html=1;strokeColor=none;fillColor=none;align=center;verticalAlign=middle;whiteSpace=wrap;rounded=0;" vertex="1" parent="1">
          <mxGeometry x="390" y="490" width="200" height="30" as="geometry" />
        </mxCell>
        <mxCell id="ro0FKpbPKF4Ar4xm-_S5-38" value="" style="endArrow=classic;html=1;rounded=0;exitX=1;exitY=1;exitDx=0;exitDy=0;dashed=1;" edge="1" parent="1">
          <mxGeometry width="50" height="50" relative="1" as="geometry">
            <mxPoint x="620" y="520" as="sourcePoint" />
            <mxPoint x="380" y="520" as="targetPoint" />
          </mxGeometry>
        </mxCell>
      </root>
    </mxGraphModel>
  </diagram>
</mxfile>
